<svg width="33" height="29" viewBox="0 0 33 29" fill="none" xmlns="http://www.w3.org/2000/svg">
<path d="M28.7383 15.7974C27.2789 14.8185 14.7809 6.30604 11.4122 0.348378L11.2275 0.0202857L10.8474 0.00594219C7.94656 -0.112386 5.69115 1.56573 4.7248 2.43347C4.33037 2.03366 3.92877 1.6231 3.51821 1.19998L3.02876 0.697986L2.54289 1.20357C0.640674 3.1775 -0.200175 5.01339 0.0400675 6.66819C0.235489 8.01104 1.15343 9.17999 2.69529 10.0531C2.97318 10.2109 6.19135 12.4 9.68922 15.1932C9.08502 15.81 6.88878 17.2317 6.09275 17.7982C5.19811 18.4329 1.47077 21.816 1.47077 21.816L3.87857 22.3844L4.71225 24.0123C4.71225 24.0123 5.85609 21.2118 7.11109 19.8295C8.36609 18.4473 10.5588 17.3429 10.5588 17.3429C10.5588 17.3429 9.37367 19.0353 8.52386 20.6776C7.67584 22.3198 7.4589 25.1669 7.4589 25.1669L8.93084 24.7007L9.94559 26.9131C9.94559 26.9131 10.2163 23.7864 10.8402 21.7497C11.344 20.1021 12.5793 18.5405 13.0383 17.9937C17.4738 21.8985 22.1083 26.6137 23.0352 27.5657C23.5946 28.2076 24.3189 28.6809 25.262 28.8906C25.599 28.9641 25.9415 29 26.2749 29C28.1933 29 30.0148 27.8042 31.1873 25.7101C32.5571 23.2736 32.9426 19.5266 30.5652 17.065C29.9144 16.3855 29.2977 16 28.7383 15.7974ZM9.93125 13.6514C6.72204 11.127 3.79431 9.11723 3.36761 8.8752C2.18612 8.20646 1.51917 7.39788 1.38471 6.47277C1.22694 5.3863 1.78631 4.1062 3.04848 2.66116C6.18777 5.87396 8.87167 8.4234 11.1504 10.4511C10.1195 12.1239 9.93842 13.0221 9.93125 13.6514ZM11.9249 9.31983C10.1159 7.71164 8.04517 5.7628 5.68577 3.39982C6.48718 2.69881 8.24955 1.40975 10.4315 1.35776C11.5717 3.2277 13.4614 5.28052 15.5913 7.26701C14.4833 7.37996 13.0992 7.86403 11.9249 9.31983ZM13.3036 16.4249C13.4184 15.5572 13.6873 14.3613 14.2933 13.1296C18.2842 16.3801 20.5503 17.5688 21.5418 17.9865C21.3876 19.1303 21.1276 21.7658 21.5794 24.1754C19.437 22.0563 16.2869 19.012 13.3036 16.4249ZM30.0112 25.0521C29.1668 26.5563 27.555 28.0103 25.5596 27.5693C22.1334 26.8127 22.5261 20.1558 22.9671 17.6548L23.0783 17.0219L22.449 16.8749C22.4221 16.8677 20.2904 16.2689 15.023 11.9679C16.0126 10.8169 17.5975 10.3023 18.8023 10.0746C21.7766 12.5434 24.7384 14.6769 26.508 15.9122C26.4542 15.939 26.404 15.9641 26.3592 15.9928C24.3189 17.151 23.4673 20.5019 23.9101 22.1065C24.4301 23.9943 25.6905 25.2063 27.0172 25.1812C27.5837 25.1597 28.9642 24.8406 29.468 22.3198L29.5469 21.9272L29.2439 21.6708C27.3291 20.0411 26.2929 19.0783 25.798 18.5961C26.1136 17.9829 26.5295 17.4504 27.0297 17.1672C27.7881 16.7405 28.6505 17.0201 29.5989 18.0044C31.4903 19.973 31.1389 23.0388 30.0112 25.0521ZM28.0463 22.4382C27.8096 23.2969 27.4134 23.8133 26.9634 23.8258C26.958 23.8258 26.9508 23.8258 26.9419 23.8258C26.3789 23.8258 25.5883 23.1069 25.2136 21.7479C25.0934 21.314 25.1275 20.6668 25.2889 19.9927C25.85 20.518 26.7267 21.3104 28.0463 22.4382Z" fill="black"/>
</svg>
