<svg width="32" height="32" viewBox="0 0 32 32" fill="none" xmlns="http://www.w3.org/2000/svg">
<path d="M30.2979 0H1.70213C0.761872 0 0 0.761872 0 1.70213V30.2979C0 31.2381 0.761872 32 1.70213 32H30.2979C31.2381 32 32 31.2381 32 30.2979V1.70213C32 0.761872 31.2381 0 30.2979 0ZM15.3409 25.183H11.262C11.0703 24.9256 10.9481 24.6305 10.8963 24.2962C10.8439 23.9619 10.8092 23.615 10.7911 23.2548L10.6894 19.7307C10.6546 19.01 10.4766 18.4456 10.1529 18.0334C9.83013 17.6211 9.28442 17.4158 8.51915 17.4158H6.55251V25.183H2.82996V6.81804H9.70553C11.2569 6.81804 12.4633 7.20817 13.3249 7.98843C14.1859 8.76902 14.6172 9.95608 14.6172 11.551C14.6172 12.7854 14.3673 13.793 13.8672 14.5733C13.3678 15.3535 12.5927 15.855 11.5414 16.0783V16.1294C12.1787 16.2151 12.6863 16.3734 13.0662 16.6046C13.4448 16.8371 13.7386 17.1704 13.9449 17.6071C14.1515 18.0446 14.2938 18.5978 14.3714 19.2667C14.449 19.9357 14.496 20.7581 14.5134 21.7362C14.5304 22.7125 14.5872 23.4587 14.6819 23.9734C14.7762 24.4875 14.9961 24.8388 15.3413 25.0281L15.3409 25.183ZM29.1704 25.183H26.4296V23.486H26.3786C25.9302 24.2046 25.3923 24.7292 24.7629 25.0533C24.1331 25.3801 23.3804 25.5428 22.5014 25.5428C21.3637 25.5428 20.4374 25.3331 19.7222 24.9127C19.0063 24.4933 18.447 23.871 18.0422 23.0475C17.6378 22.225 17.3651 21.2085 17.2279 20.0007C17.0894 18.7905 17.0206 17.3893 17.0206 15.7951C17.0206 14.2509 17.1197 12.8963 17.3185 11.7307C17.5163 10.5648 17.8563 9.59149 18.3394 8.81191C18.8214 8.03234 19.4597 7.44409 20.2519 7.04953C21.0437 6.65498 22.0357 6.45753 23.2245 6.45753C25.2572 6.45753 26.722 6.95966 27.6184 7.96289C28.514 8.96613 28.9624 10.4024 28.9624 12.271H25.3957C25.3957 11.9455 25.3573 11.5986 25.2793 11.2286C25.2024 10.8603 25.0764 10.5266 24.9042 10.2264C24.7326 9.92647 24.513 9.67796 24.2451 9.47983C23.9786 9.2834 23.6548 9.18434 23.2756 9.18434C22.3792 9.18434 21.7334 9.68238 21.3375 10.6764C20.9406 11.6708 20.7431 13.3174 20.7431 15.6157C20.7431 16.7292 20.7775 17.7287 20.8456 18.6114C20.914 19.4951 21.041 20.2495 21.2214 20.8756C21.4022 21.5006 21.6609 21.9803 21.9966 22.3152C22.3329 22.6485 22.7673 22.8167 23.3025 22.8167C23.5258 22.8167 23.7712 22.7561 24.0385 22.6363C24.3057 22.5168 24.5559 22.337 24.7877 22.097C25.0206 21.8567 25.2146 21.5527 25.3695 21.183C25.5244 20.814 25.6031 20.382 25.6031 19.8846V18.0068H23.1469V15.2797H29.1694V25.1823H29.1704V25.183Z" fill="white"/>
<path d="M8.30977 9.54486H6.55249V14.8422H8.10347C8.99913 14.8422 9.68815 14.6329 10.1712 14.2121C10.6533 13.793 10.8943 13.0849 10.8943 12.0909C10.8943 10.3939 10.0337 9.54486 8.30977 9.54486Z" fill="white"/>
</svg>
